# xmcd CD database file
# Copyright (C) 1996 Ti Kan
#
# Track frame offsets:
# 	150
# 	17182
# 	32355
# 	46760
# 	60745
# 	77150
# 	88372
# 	101737
# 	114052
# 	129275
# 	142477
# 	154000
#
# Disc length: 2203 seconds
#
# Revision: 1
# Processed by: cddbd v1.4b41PL1 Copyright (c) Steve Scherf et al.
# Submitted via: DiscPlay 3.4.1
#
DISCID=9808990c
DTITLE=Slim Dusty - Stories I Wanted To Tell
DYEAR=1900
DGENRE=
TTITLE0=Mount Buckaroo
TTITLE1=The Old Jimmy Woodser
TTITLE2=Break O'Day
TTITLE3=When The Currawongs Come Down
TTITLE4=I've Seen His Face Before
TTITLE5=The Shearing Shed
TTITLE6=Bible Of The Bush
TTITLE7=To An Old Mate
TTITLE8=Two Old Gentlemen
TTITLE9=Why Don't You Just Go Fishing
TTITLE10=Andy's Return
TTITLE11=On The Night Train
EXTD=
EXTT0=
EXTT1=
EXTT2=
EXTT3=
EXTT4=
EXTT5=
EXTT6=
EXTT7=
EXTT8=
EXTT9=
EXTT10=
EXTT11=
PLAYORDER=
